<mxfile host="app.diagrams.net" modified="2023-09-29T11:13:22.682Z" agent="Mozilla/5.0 (Windows NT 10.0; Win64; x64) AppleWebKit/537.36 (KHTML, like Gecko) Chrome/117.0.0.0 Safari/537.36" etag="OvUxP3B1TUXh2dhm9Kuo" version="22.0.0" type="github">
  <diagram name="Page-1" id="2a216829-ef6e-dabb-86c1-c78162f3ba2b">
    <mxGraphModel dx="2284" dy="2990" grid="1" gridSize="10" guides="1" tooltips="1" connect="1" arrows="1" fold="1" page="1" pageScale="1" pageWidth="850" pageHeight="1100" background="none" math="0" shadow="0">
      <root>
        <mxCell id="0" />
        <mxCell id="1" parent="0" />
        <mxCell id="QVbk10EsbUVy-X8L7oig-3" value="" style="edgeStyle=orthogonalEdgeStyle;rounded=0;orthogonalLoop=1;jettySize=auto;html=1;" edge="1" parent="1" source="QVbk10EsbUVy-X8L7oig-1" target="QVbk10EsbUVy-X8L7oig-2">
          <mxGeometry relative="1" as="geometry" />
        </mxCell>
        <mxCell id="QVbk10EsbUVy-X8L7oig-1" value="Вход на страницу авторизации" style="ellipse;whiteSpace=wrap;html=1;aspect=fixed;fillColor=#e1d5e7;strokeColor=#9673a6;" vertex="1" parent="1">
          <mxGeometry x="80" y="-1130" width="90" height="90" as="geometry" />
        </mxCell>
        <mxCell id="QVbk10EsbUVy-X8L7oig-2" value="Заполнить анкету" style="whiteSpace=wrap;html=1;" vertex="1" parent="1">
          <mxGeometry x="230" y="-1115" width="175" height="60" as="geometry" />
        </mxCell>
        <mxCell id="QVbk10EsbUVy-X8L7oig-4" value="" style="endArrow=classic;html=1;rounded=0;" edge="1" parent="1">
          <mxGeometry width="50" height="50" relative="1" as="geometry">
            <mxPoint x="322.67" y="-1020" as="sourcePoint" />
            <mxPoint x="322.33000000000004" y="-1055" as="targetPoint" />
          </mxGeometry>
        </mxCell>
        <mxCell id="QVbk10EsbUVy-X8L7oig-6" value="User" style="edgeLabel;html=1;align=center;verticalAlign=middle;resizable=0;points=[];" vertex="1" connectable="0" parent="QVbk10EsbUVy-X8L7oig-4">
          <mxGeometry x="-0.3764" y="2" relative="1" as="geometry">
            <mxPoint as="offset" />
          </mxGeometry>
        </mxCell>
        <mxCell id="QVbk10EsbUVy-X8L7oig-11" value="" style="endArrow=classic;html=1;rounded=0;entryX=0.509;entryY=-0.011;entryDx=0;entryDy=0;entryPerimeter=0;" edge="1" parent="1" target="QVbk10EsbUVy-X8L7oig-2">
          <mxGeometry width="50" height="50" relative="1" as="geometry">
            <mxPoint x="318.75" y="-1150" as="sourcePoint" />
            <mxPoint x="316.25" y="-1115" as="targetPoint" />
          </mxGeometry>
        </mxCell>
        <mxCell id="QVbk10EsbUVy-X8L7oig-12" value="Веб-форма" style="edgeLabel;html=1;align=center;verticalAlign=middle;resizable=0;points=[];" vertex="1" connectable="0" parent="QVbk10EsbUVy-X8L7oig-11">
          <mxGeometry x="-0.3764" y="2" relative="1" as="geometry">
            <mxPoint x="1" y="-1" as="offset" />
          </mxGeometry>
        </mxCell>
        <mxCell id="QVbk10EsbUVy-X8L7oig-16" value="" style="edgeStyle=orthogonalEdgeStyle;rounded=0;orthogonalLoop=1;jettySize=auto;html=1;" edge="1" parent="1" target="QVbk10EsbUVy-X8L7oig-17">
          <mxGeometry relative="1" as="geometry">
            <mxPoint x="410" y="-1085" as="sourcePoint" />
          </mxGeometry>
        </mxCell>
        <mxCell id="QVbk10EsbUVy-X8L7oig-23" value="" style="edgeStyle=orthogonalEdgeStyle;rounded=0;orthogonalLoop=1;jettySize=auto;html=1;" edge="1" parent="1" source="QVbk10EsbUVy-X8L7oig-17" target="QVbk10EsbUVy-X8L7oig-22">
          <mxGeometry relative="1" as="geometry" />
        </mxCell>
        <mxCell id="QVbk10EsbUVy-X8L7oig-17" value="Создать учетную запись" style="whiteSpace=wrap;html=1;" vertex="1" parent="1">
          <mxGeometry x="517.5" y="-1115" width="175" height="60" as="geometry" />
        </mxCell>
        <mxCell id="QVbk10EsbUVy-X8L7oig-18" value="" style="endArrow=classic;html=1;rounded=0;" edge="1" parent="1">
          <mxGeometry width="50" height="50" relative="1" as="geometry">
            <mxPoint x="604.9200000000001" y="-1020" as="sourcePoint" />
            <mxPoint x="604.58" y="-1055" as="targetPoint" />
          </mxGeometry>
        </mxCell>
        <mxCell id="QVbk10EsbUVy-X8L7oig-19" value="ПО" style="edgeLabel;html=1;align=center;verticalAlign=middle;resizable=0;points=[];" vertex="1" connectable="0" parent="QVbk10EsbUVy-X8L7oig-18">
          <mxGeometry x="-0.3764" y="2" relative="1" as="geometry">
            <mxPoint as="offset" />
          </mxGeometry>
        </mxCell>
        <mxCell id="QVbk10EsbUVy-X8L7oig-20" value="" style="endArrow=classic;html=1;rounded=0;entryX=0.484;entryY=-0.004;entryDx=0;entryDy=0;entryPerimeter=0;" edge="1" parent="1">
          <mxGeometry width="50" height="50" relative="1" as="geometry">
            <mxPoint x="604.5" y="-1150" as="sourcePoint" />
            <mxPoint x="604.8499999999999" y="-1115" as="targetPoint" />
          </mxGeometry>
        </mxCell>
        <mxCell id="QVbk10EsbUVy-X8L7oig-21" value="Функция" style="edgeLabel;html=1;align=center;verticalAlign=middle;resizable=0;points=[];" vertex="1" connectable="0" parent="QVbk10EsbUVy-X8L7oig-20">
          <mxGeometry x="-0.3764" y="2" relative="1" as="geometry">
            <mxPoint x="1" y="-1" as="offset" />
          </mxGeometry>
        </mxCell>
        <mxCell id="QVbk10EsbUVy-X8L7oig-22" value="" style="ellipse;whiteSpace=wrap;html=1;fillColor=#e51400;fontColor=#ffffff;strokeColor=#B20000;" vertex="1" parent="1">
          <mxGeometry x="737.5" y="-1125" width="80" height="80" as="geometry" />
        </mxCell>
        <mxCell id="QVbk10EsbUVy-X8L7oig-24" value="" style="edgeStyle=orthogonalEdgeStyle;rounded=0;orthogonalLoop=1;jettySize=auto;html=1;" edge="1" parent="1" source="QVbk10EsbUVy-X8L7oig-25" target="QVbk10EsbUVy-X8L7oig-26">
          <mxGeometry relative="1" as="geometry" />
        </mxCell>
        <mxCell id="QVbk10EsbUVy-X8L7oig-25" value="Вход на страницу авторизации" style="ellipse;whiteSpace=wrap;html=1;aspect=fixed;fillColor=#e1d5e7;strokeColor=#9673a6;" vertex="1" parent="1">
          <mxGeometry x="80" y="-790" width="90" height="90" as="geometry" />
        </mxCell>
        <mxCell id="QVbk10EsbUVy-X8L7oig-32" value="" style="edgeStyle=orthogonalEdgeStyle;rounded=0;orthogonalLoop=1;jettySize=auto;html=1;" edge="1" parent="1" source="QVbk10EsbUVy-X8L7oig-26" target="QVbk10EsbUVy-X8L7oig-31">
          <mxGeometry relative="1" as="geometry" />
        </mxCell>
        <mxCell id="QVbk10EsbUVy-X8L7oig-26" value="Введение учетных данных" style="whiteSpace=wrap;html=1;" vertex="1" parent="1">
          <mxGeometry x="235" y="-775" width="175" height="60" as="geometry" />
        </mxCell>
        <mxCell id="QVbk10EsbUVy-X8L7oig-27" value="" style="endArrow=classic;html=1;rounded=0;" edge="1" parent="1">
          <mxGeometry width="50" height="50" relative="1" as="geometry">
            <mxPoint x="322.67" y="-680" as="sourcePoint" />
            <mxPoint x="322.33000000000004" y="-715" as="targetPoint" />
          </mxGeometry>
        </mxCell>
        <mxCell id="QVbk10EsbUVy-X8L7oig-28" value="User" style="edgeLabel;html=1;align=center;verticalAlign=middle;resizable=0;points=[];" vertex="1" connectable="0" parent="QVbk10EsbUVy-X8L7oig-27">
          <mxGeometry x="-0.3764" y="2" relative="1" as="geometry">
            <mxPoint as="offset" />
          </mxGeometry>
        </mxCell>
        <mxCell id="QVbk10EsbUVy-X8L7oig-29" value="" style="endArrow=classic;html=1;rounded=0;entryX=0.484;entryY=-0.004;entryDx=0;entryDy=0;entryPerimeter=0;" edge="1" parent="1" target="QVbk10EsbUVy-X8L7oig-26">
          <mxGeometry width="50" height="50" relative="1" as="geometry">
            <mxPoint x="320" y="-810" as="sourcePoint" />
            <mxPoint x="318.75" y="-775" as="targetPoint" />
          </mxGeometry>
        </mxCell>
        <mxCell id="QVbk10EsbUVy-X8L7oig-30" value="Веб-форма" style="edgeLabel;html=1;align=center;verticalAlign=middle;resizable=0;points=[];" vertex="1" connectable="0" parent="QVbk10EsbUVy-X8L7oig-29">
          <mxGeometry x="-0.3764" y="2" relative="1" as="geometry">
            <mxPoint x="1" y="-1" as="offset" />
          </mxGeometry>
        </mxCell>
        <mxCell id="QVbk10EsbUVy-X8L7oig-57" style="edgeStyle=orthogonalEdgeStyle;rounded=0;orthogonalLoop=1;jettySize=auto;html=1;entryX=0;entryY=0.5;entryDx=0;entryDy=0;" edge="1" parent="1" source="QVbk10EsbUVy-X8L7oig-31" target="QVbk10EsbUVy-X8L7oig-33">
          <mxGeometry relative="1" as="geometry" />
        </mxCell>
        <mxCell id="QVbk10EsbUVy-X8L7oig-68" style="edgeStyle=orthogonalEdgeStyle;rounded=0;orthogonalLoop=1;jettySize=auto;html=1;exitX=0.5;exitY=1;exitDx=0;exitDy=0;entryX=0;entryY=0.5;entryDx=0;entryDy=0;" edge="1" parent="1" source="QVbk10EsbUVy-X8L7oig-31" target="QVbk10EsbUVy-X8L7oig-67">
          <mxGeometry relative="1" as="geometry" />
        </mxCell>
        <mxCell id="QVbk10EsbUVy-X8L7oig-105" style="edgeStyle=orthogonalEdgeStyle;rounded=0;orthogonalLoop=1;jettySize=auto;html=1;exitX=0.5;exitY=1;exitDx=0;exitDy=0;entryX=0.5;entryY=0;entryDx=0;entryDy=0;" edge="1" parent="1" source="QVbk10EsbUVy-X8L7oig-31" target="QVbk10EsbUVy-X8L7oig-84">
          <mxGeometry relative="1" as="geometry" />
        </mxCell>
        <mxCell id="QVbk10EsbUVy-X8L7oig-31" value="Проверка учетных данных" style="rhombus;whiteSpace=wrap;html=1;" vertex="1" parent="1">
          <mxGeometry x="440" y="-800" width="90" height="110" as="geometry" />
        </mxCell>
        <mxCell id="QVbk10EsbUVy-X8L7oig-46" value="" style="edgeStyle=orthogonalEdgeStyle;rounded=0;orthogonalLoop=1;jettySize=auto;html=1;" edge="1" parent="1" source="QVbk10EsbUVy-X8L7oig-33" target="QVbk10EsbUVy-X8L7oig-45">
          <mxGeometry relative="1" as="geometry" />
        </mxCell>
        <mxCell id="QVbk10EsbUVy-X8L7oig-33" value="Сброс пароля&amp;nbsp;" style="whiteSpace=wrap;html=1;" vertex="1" parent="1">
          <mxGeometry x="530" y="-920" width="120" height="60" as="geometry" />
        </mxCell>
        <mxCell id="QVbk10EsbUVy-X8L7oig-35" value="Нет&lt;br&gt;" style="text;html=1;align=center;verticalAlign=middle;resizable=0;points=[];autosize=1;strokeColor=none;fillColor=none;" vertex="1" parent="1">
          <mxGeometry x="450" y="-830" width="40" height="30" as="geometry" />
        </mxCell>
        <mxCell id="QVbk10EsbUVy-X8L7oig-44" value="Данные&lt;br&gt;User" style="text;html=1;align=center;verticalAlign=middle;resizable=0;points=[];autosize=1;strokeColor=none;fillColor=none;" vertex="1" parent="1">
          <mxGeometry x="425" y="-1125" width="70" height="40" as="geometry" />
        </mxCell>
        <mxCell id="QVbk10EsbUVy-X8L7oig-52" style="edgeStyle=orthogonalEdgeStyle;rounded=0;orthogonalLoop=1;jettySize=auto;html=1;entryX=0.25;entryY=0;entryDx=0;entryDy=0;" edge="1" parent="1" source="QVbk10EsbUVy-X8L7oig-45" target="QVbk10EsbUVy-X8L7oig-26">
          <mxGeometry relative="1" as="geometry">
            <mxPoint x="700" y="-980" as="targetPoint" />
            <Array as="points">
              <mxPoint x="840" y="-890" />
              <mxPoint x="840" y="-980" />
              <mxPoint x="279" y="-980" />
            </Array>
          </mxGeometry>
        </mxCell>
        <mxCell id="QVbk10EsbUVy-X8L7oig-45" value="Дать новый пароль" style="whiteSpace=wrap;html=1;" vertex="1" parent="1">
          <mxGeometry x="692.5" y="-920" width="120" height="60" as="geometry" />
        </mxCell>
        <mxCell id="QVbk10EsbUVy-X8L7oig-53" value="" style="endArrow=classic;html=1;rounded=0;entryX=0.484;entryY=-0.004;entryDx=0;entryDy=0;entryPerimeter=0;" edge="1" parent="1">
          <mxGeometry width="50" height="50" relative="1" as="geometry">
            <mxPoint x="589.8" y="-955" as="sourcePoint" />
            <mxPoint x="590.1499999999999" y="-920" as="targetPoint" />
          </mxGeometry>
        </mxCell>
        <mxCell id="QVbk10EsbUVy-X8L7oig-54" value="Функция" style="edgeLabel;html=1;align=center;verticalAlign=middle;resizable=0;points=[];" vertex="1" connectable="0" parent="QVbk10EsbUVy-X8L7oig-53">
          <mxGeometry x="-0.3764" y="2" relative="1" as="geometry">
            <mxPoint x="1" y="-1" as="offset" />
          </mxGeometry>
        </mxCell>
        <mxCell id="QVbk10EsbUVy-X8L7oig-55" value="" style="endArrow=classic;html=1;rounded=0;entryX=0.484;entryY=-0.004;entryDx=0;entryDy=0;entryPerimeter=0;" edge="1" parent="1">
          <mxGeometry width="50" height="50" relative="1" as="geometry">
            <mxPoint x="752.3" y="-955" as="sourcePoint" />
            <mxPoint x="752.6499999999999" y="-920" as="targetPoint" />
          </mxGeometry>
        </mxCell>
        <mxCell id="QVbk10EsbUVy-X8L7oig-56" value="Функция" style="edgeLabel;html=1;align=center;verticalAlign=middle;resizable=0;points=[];" vertex="1" connectable="0" parent="QVbk10EsbUVy-X8L7oig-55">
          <mxGeometry x="-0.3764" y="2" relative="1" as="geometry">
            <mxPoint x="1" y="-1" as="offset" />
          </mxGeometry>
        </mxCell>
        <mxCell id="QVbk10EsbUVy-X8L7oig-60" value="" style="endArrow=classic;html=1;rounded=0;entryX=0.484;entryY=-0.004;entryDx=0;entryDy=0;entryPerimeter=0;" edge="1" parent="1">
          <mxGeometry width="50" height="50" relative="1" as="geometry">
            <mxPoint x="589.66" y="-825" as="sourcePoint" />
            <mxPoint x="590.0099999999999" y="-860" as="targetPoint" />
          </mxGeometry>
        </mxCell>
        <mxCell id="QVbk10EsbUVy-X8L7oig-61" value="Функция" style="edgeLabel;html=1;align=center;verticalAlign=middle;resizable=0;points=[];" vertex="1" connectable="0" parent="QVbk10EsbUVy-X8L7oig-60">
          <mxGeometry x="-0.3764" y="2" relative="1" as="geometry">
            <mxPoint x="1" y="-1" as="offset" />
          </mxGeometry>
        </mxCell>
        <mxCell id="QVbk10EsbUVy-X8L7oig-62" value="" style="endArrow=classic;html=1;rounded=0;entryX=0.484;entryY=-0.004;entryDx=0;entryDy=0;entryPerimeter=0;" edge="1" parent="1">
          <mxGeometry width="50" height="50" relative="1" as="geometry">
            <mxPoint x="752.16" y="-825" as="sourcePoint" />
            <mxPoint x="752.5099999999999" y="-860" as="targetPoint" />
          </mxGeometry>
        </mxCell>
        <mxCell id="QVbk10EsbUVy-X8L7oig-63" value="Функция" style="edgeLabel;html=1;align=center;verticalAlign=middle;resizable=0;points=[];" vertex="1" connectable="0" parent="QVbk10EsbUVy-X8L7oig-62">
          <mxGeometry x="-0.3764" y="2" relative="1" as="geometry">
            <mxPoint x="1" y="-1" as="offset" />
          </mxGeometry>
        </mxCell>
        <mxCell id="QVbk10EsbUVy-X8L7oig-71" value="" style="edgeStyle=orthogonalEdgeStyle;rounded=0;orthogonalLoop=1;jettySize=auto;html=1;" edge="1" parent="1" source="QVbk10EsbUVy-X8L7oig-67" target="QVbk10EsbUVy-X8L7oig-70">
          <mxGeometry relative="1" as="geometry" />
        </mxCell>
        <mxCell id="QVbk10EsbUVy-X8L7oig-67" value="Тестирование" style="rounded=0;whiteSpace=wrap;html=1;" vertex="1" parent="1">
          <mxGeometry x="530" y="-660" width="120" height="60" as="geometry" />
        </mxCell>
        <mxCell id="QVbk10EsbUVy-X8L7oig-73" value="" style="edgeStyle=orthogonalEdgeStyle;rounded=0;orthogonalLoop=1;jettySize=auto;html=1;" edge="1" parent="1" source="QVbk10EsbUVy-X8L7oig-70" target="QVbk10EsbUVy-X8L7oig-72">
          <mxGeometry relative="1" as="geometry" />
        </mxCell>
        <mxCell id="QVbk10EsbUVy-X8L7oig-70" value="Сохранение результатов" style="rounded=0;whiteSpace=wrap;html=1;" vertex="1" parent="1">
          <mxGeometry x="692.5" y="-660" width="120" height="60" as="geometry" />
        </mxCell>
        <mxCell id="QVbk10EsbUVy-X8L7oig-72" value="" style="ellipse;whiteSpace=wrap;html=1;rounded=0;fillColor=#e51400;fontColor=#ffffff;strokeColor=#B20000;" vertex="1" parent="1">
          <mxGeometry x="860" y="-670" width="80" height="80" as="geometry" />
        </mxCell>
        <mxCell id="QVbk10EsbUVy-X8L7oig-76" value="" style="endArrow=classic;html=1;rounded=0;entryX=0.484;entryY=-0.004;entryDx=0;entryDy=0;entryPerimeter=0;" edge="1" parent="1">
          <mxGeometry width="50" height="50" relative="1" as="geometry">
            <mxPoint x="590.1" y="-565" as="sourcePoint" />
            <mxPoint x="590.4499999999999" y="-600" as="targetPoint" />
          </mxGeometry>
        </mxCell>
        <mxCell id="QVbk10EsbUVy-X8L7oig-77" value="Функция" style="edgeLabel;html=1;align=center;verticalAlign=middle;resizable=0;points=[];" vertex="1" connectable="0" parent="QVbk10EsbUVy-X8L7oig-76">
          <mxGeometry x="-0.3764" y="2" relative="1" as="geometry">
            <mxPoint x="1" y="-1" as="offset" />
          </mxGeometry>
        </mxCell>
        <mxCell id="QVbk10EsbUVy-X8L7oig-78" value="" style="endArrow=classic;html=1;rounded=0;entryX=0.484;entryY=-0.004;entryDx=0;entryDy=0;entryPerimeter=0;" edge="1" parent="1">
          <mxGeometry width="50" height="50" relative="1" as="geometry">
            <mxPoint x="752.5999999999999" y="-565" as="sourcePoint" />
            <mxPoint x="752.9499999999998" y="-600" as="targetPoint" />
          </mxGeometry>
        </mxCell>
        <mxCell id="QVbk10EsbUVy-X8L7oig-79" value="Функция" style="edgeLabel;html=1;align=center;verticalAlign=middle;resizable=0;points=[];" vertex="1" connectable="0" parent="QVbk10EsbUVy-X8L7oig-78">
          <mxGeometry x="-0.3764" y="2" relative="1" as="geometry">
            <mxPoint x="1" y="-1" as="offset" />
          </mxGeometry>
        </mxCell>
        <mxCell id="QVbk10EsbUVy-X8L7oig-80" value="" style="endArrow=classic;html=1;rounded=0;entryX=0.484;entryY=-0.004;entryDx=0;entryDy=0;entryPerimeter=0;" edge="1" parent="1">
          <mxGeometry width="50" height="50" relative="1" as="geometry">
            <mxPoint x="590.1" y="-695" as="sourcePoint" />
            <mxPoint x="590.4499999999999" y="-660" as="targetPoint" />
          </mxGeometry>
        </mxCell>
        <mxCell id="QVbk10EsbUVy-X8L7oig-81" value="Функция" style="edgeLabel;html=1;align=center;verticalAlign=middle;resizable=0;points=[];" vertex="1" connectable="0" parent="QVbk10EsbUVy-X8L7oig-80">
          <mxGeometry x="-0.3764" y="2" relative="1" as="geometry">
            <mxPoint x="1" y="-1" as="offset" />
          </mxGeometry>
        </mxCell>
        <mxCell id="QVbk10EsbUVy-X8L7oig-82" value="" style="endArrow=classic;html=1;rounded=0;entryX=0.484;entryY=-0.004;entryDx=0;entryDy=0;entryPerimeter=0;" edge="1" parent="1">
          <mxGeometry width="50" height="50" relative="1" as="geometry">
            <mxPoint x="752.16" y="-695" as="sourcePoint" />
            <mxPoint x="752.5099999999999" y="-660" as="targetPoint" />
          </mxGeometry>
        </mxCell>
        <mxCell id="QVbk10EsbUVy-X8L7oig-83" value="Функция" style="edgeLabel;html=1;align=center;verticalAlign=middle;resizable=0;points=[];" vertex="1" connectable="0" parent="QVbk10EsbUVy-X8L7oig-82">
          <mxGeometry x="-0.3764" y="2" relative="1" as="geometry">
            <mxPoint x="1" y="-1" as="offset" />
          </mxGeometry>
        </mxCell>
        <mxCell id="QVbk10EsbUVy-X8L7oig-86" value="" style="edgeStyle=orthogonalEdgeStyle;rounded=0;orthogonalLoop=1;jettySize=auto;html=1;" edge="1" parent="1" source="QVbk10EsbUVy-X8L7oig-84" target="QVbk10EsbUVy-X8L7oig-85">
          <mxGeometry relative="1" as="geometry" />
        </mxCell>
        <mxCell id="QVbk10EsbUVy-X8L7oig-84" value="Вход на страницу" style="ellipse;whiteSpace=wrap;html=1;aspect=fixed;fillColor=#e1d5e7;strokeColor=#9673a6;" vertex="1" parent="1">
          <mxGeometry x="80" y="-460" width="90" height="90" as="geometry" />
        </mxCell>
        <mxCell id="QVbk10EsbUVy-X8L7oig-88" value="" style="edgeStyle=orthogonalEdgeStyle;rounded=0;orthogonalLoop=1;jettySize=auto;html=1;" edge="1" parent="1" source="QVbk10EsbUVy-X8L7oig-85" target="QVbk10EsbUVy-X8L7oig-87">
          <mxGeometry relative="1" as="geometry" />
        </mxCell>
        <mxCell id="QVbk10EsbUVy-X8L7oig-85" value="Просмотр перечня тестов" style="whiteSpace=wrap;html=1;" vertex="1" parent="1">
          <mxGeometry x="235" y="-445" width="120" height="60" as="geometry" />
        </mxCell>
        <mxCell id="QVbk10EsbUVy-X8L7oig-90" value="" style="edgeStyle=orthogonalEdgeStyle;rounded=0;orthogonalLoop=1;jettySize=auto;html=1;" edge="1" parent="1" source="QVbk10EsbUVy-X8L7oig-87" target="QVbk10EsbUVy-X8L7oig-89">
          <mxGeometry relative="1" as="geometry" />
        </mxCell>
        <mxCell id="QVbk10EsbUVy-X8L7oig-87" value="Получение сертификата" style="whiteSpace=wrap;html=1;" vertex="1" parent="1">
          <mxGeometry x="435" y="-445" width="120" height="60" as="geometry" />
        </mxCell>
        <mxCell id="QVbk10EsbUVy-X8L7oig-89" value="" style="ellipse;whiteSpace=wrap;html=1;fillColor=#e51400;strokeColor=#B20000;fontColor=#ffffff;" vertex="1" parent="1">
          <mxGeometry x="630" y="-455" width="80" height="80" as="geometry" />
        </mxCell>
        <mxCell id="QVbk10EsbUVy-X8L7oig-91" value="" style="endArrow=classic;html=1;rounded=0;entryX=0.484;entryY=-0.004;entryDx=0;entryDy=0;entryPerimeter=0;" edge="1" parent="1">
          <mxGeometry width="50" height="50" relative="1" as="geometry">
            <mxPoint x="293.45000000000005" y="-480" as="sourcePoint" />
            <mxPoint x="293.79999999999995" y="-445" as="targetPoint" />
          </mxGeometry>
        </mxCell>
        <mxCell id="QVbk10EsbUVy-X8L7oig-92" value="Веб-форма" style="edgeLabel;html=1;align=center;verticalAlign=middle;resizable=0;points=[];" vertex="1" connectable="0" parent="QVbk10EsbUVy-X8L7oig-91">
          <mxGeometry x="-0.3764" y="2" relative="1" as="geometry">
            <mxPoint x="1" y="-1" as="offset" />
          </mxGeometry>
        </mxCell>
        <mxCell id="QVbk10EsbUVy-X8L7oig-96" value="" style="endArrow=classic;html=1;rounded=0;entryX=0.484;entryY=-0.004;entryDx=0;entryDy=0;entryPerimeter=0;" edge="1" parent="1">
          <mxGeometry width="50" height="50" relative="1" as="geometry">
            <mxPoint x="493.45000000000005" y="-480" as="sourcePoint" />
            <mxPoint x="493.79999999999995" y="-445" as="targetPoint" />
          </mxGeometry>
        </mxCell>
        <mxCell id="QVbk10EsbUVy-X8L7oig-97" value="Веб-форма и форма сертификата" style="edgeLabel;html=1;align=center;verticalAlign=middle;resizable=0;points=[];" vertex="1" connectable="0" parent="QVbk10EsbUVy-X8L7oig-96">
          <mxGeometry x="-0.3764" y="2" relative="1" as="geometry">
            <mxPoint x="1" y="-1" as="offset" />
          </mxGeometry>
        </mxCell>
        <mxCell id="QVbk10EsbUVy-X8L7oig-98" value="" style="endArrow=classic;html=1;rounded=0;entryX=0.484;entryY=-0.004;entryDx=0;entryDy=0;entryPerimeter=0;" edge="1" parent="1">
          <mxGeometry width="50" height="50" relative="1" as="geometry">
            <mxPoint x="293.45000000000005" y="-350" as="sourcePoint" />
            <mxPoint x="293.79999999999995" y="-385" as="targetPoint" />
          </mxGeometry>
        </mxCell>
        <mxCell id="QVbk10EsbUVy-X8L7oig-99" value="User" style="edgeLabel;html=1;align=center;verticalAlign=middle;resizable=0;points=[];" vertex="1" connectable="0" parent="QVbk10EsbUVy-X8L7oig-98">
          <mxGeometry x="-0.3764" y="2" relative="1" as="geometry">
            <mxPoint x="1" y="-1" as="offset" />
          </mxGeometry>
        </mxCell>
        <mxCell id="QVbk10EsbUVy-X8L7oig-100" value="" style="endArrow=classic;html=1;rounded=0;entryX=0.484;entryY=-0.004;entryDx=0;entryDy=0;entryPerimeter=0;" edge="1" parent="1">
          <mxGeometry width="50" height="50" relative="1" as="geometry">
            <mxPoint x="493.45000000000005" y="-350" as="sourcePoint" />
            <mxPoint x="493.79999999999995" y="-385" as="targetPoint" />
          </mxGeometry>
        </mxCell>
        <mxCell id="QVbk10EsbUVy-X8L7oig-101" value="User" style="edgeLabel;html=1;align=center;verticalAlign=middle;resizable=0;points=[];" vertex="1" connectable="0" parent="QVbk10EsbUVy-X8L7oig-100">
          <mxGeometry x="-0.3764" y="2" relative="1" as="geometry">
            <mxPoint x="1" y="-1" as="offset" />
          </mxGeometry>
        </mxCell>
        <mxCell id="QVbk10EsbUVy-X8L7oig-106" value="Да" style="text;html=1;align=center;verticalAlign=middle;resizable=0;points=[];autosize=1;strokeColor=none;fillColor=none;" vertex="1" parent="1">
          <mxGeometry x="450" y="-672" width="40" height="30" as="geometry" />
        </mxCell>
        <mxCell id="QVbk10EsbUVy-X8L7oig-107" value="Б.П. 1.3.&lt;br style=&quot;font-size: 14px;&quot;&gt;Статистика" style="text;html=1;align=center;verticalAlign=middle;resizable=0;points=[];autosize=1;strokeColor=none;fillColor=none;fontSize=14;fontStyle=3" vertex="1" parent="1">
          <mxGeometry y="-640" width="120" height="50" as="geometry" />
        </mxCell>
        <mxCell id="QVbk10EsbUVy-X8L7oig-108" value="Б.П. 1.2.&lt;br style=&quot;font-size: 14px;&quot;&gt;Тестирование" style="text;html=1;align=center;verticalAlign=middle;resizable=0;points=[];autosize=1;strokeColor=none;fillColor=none;fontSize=14;fontStyle=3" vertex="1" parent="1">
          <mxGeometry x="-5" y="-850" width="130" height="50" as="geometry" />
        </mxCell>
        <mxCell id="QVbk10EsbUVy-X8L7oig-109" value="Б.П. 1.1&lt;br style=&quot;font-size: 14px;&quot;&gt;Регистрация" style="text;html=1;align=center;verticalAlign=middle;resizable=0;points=[];autosize=1;strokeColor=none;fillColor=none;fontSize=14;fontStyle=3" vertex="1" parent="1">
          <mxGeometry x="-5" y="-1190" width="120" height="50" as="geometry" />
        </mxCell>
      </root>
    </mxGraphModel>
  </diagram>
</mxfile>
